<svg width="27" height="30" viewBox="0 0 27 30" fill="none" xmlns="http://www.w3.org/2000/svg">
<path d="M21.9323 18.7709C21.8202 18.8404 21.4999 18.8832 21.2971 18.8832C20.6351 18.8832 19.8237 18.5786 18.676 18.0869C19.119 18.0548 19.5194 18.0388 19.8824 18.0388C20.5444 18.0388 20.7365 18.0388 21.3878 18.2045C22.0337 18.3648 22.0391 18.7015 21.9323 18.7709ZM10.4496 18.8725C10.7059 18.4236 10.9675 17.948 11.2344 17.4403C11.8857 16.2058 12.302 15.2332 12.6063 14.4369C13.2202 15.5538 13.9836 16.4997 14.8751 17.2586C14.9872 17.3548 15.1046 17.4456 15.2328 17.5418C13.4124 17.9052 11.8376 18.3434 10.4496 18.8725ZM12.5743 7.17439C12.9373 7.17439 13.1455 8.08608 13.1615 8.94647C13.1775 9.80151 12.98 10.4 12.7291 10.8489C12.5209 10.1863 12.4248 9.14954 12.4248 8.47085C12.4248 8.47085 12.4088 7.17439 12.5743 7.17439ZM5.45301 23.5913C5.6612 23.0301 6.47262 21.9186 7.67374 20.9299C7.74847 20.8712 7.93531 20.6948 8.10614 20.5345C6.85164 22.5438 6.00819 23.3401 5.45301 23.5913ZM22.2793 17.5899C21.9163 17.2319 21.1049 17.0448 19.8771 17.0288C19.0443 17.0181 18.046 17.0929 16.9891 17.2372C16.5193 16.9647 16.0335 16.6707 15.6491 16.3127C14.6242 15.3508 13.7701 14.0201 13.2362 12.5558C13.2683 12.4169 13.3003 12.2993 13.327 12.1764C13.327 12.1764 13.9035 8.88982 13.7487 7.77826C13.7274 7.62329 13.7167 7.58053 13.674 7.46296L13.6259 7.32936C13.4711 6.96811 13.1615 6.58334 12.6757 6.60418L12.3928 6.59509H12.3875C11.8483 6.59509 11.4052 6.87138 11.2931 7.28127C10.9408 8.57987 11.3038 10.5144 11.9604 13.0208L11.7896 13.4323C11.3198 14.5759 10.7326 15.7302 10.2148 16.7456L10.1454 16.8792C9.60086 17.948 9.1044 18.8564 8.65598 19.626L8.19155 19.8718C8.15952 19.8932 7.36412 20.31 7.17728 20.4223C5.59714 21.3681 4.54656 22.4423 4.37253 23.2973C4.31702 23.5645 4.35866 23.9119 4.63998 24.0776L5.0884 24.302C5.28218 24.3982 5.49037 24.4463 5.69857 24.4463C6.82495 24.4463 8.13283 23.0462 9.93183 19.8985C12.0138 19.2198 14.384 18.6534 16.4606 18.3434C18.0407 19.2359 19.9838 19.8558 21.2116 19.8558C21.4305 19.8558 21.6174 19.8344 21.7722 19.7917C22.0071 19.7329 22.2046 19.5993 22.3274 19.4122C22.5622 19.0542 22.6156 18.5625 22.5462 18.0548C22.5302 17.9052 22.4074 17.7182 22.2793 17.5899Z" fill="white"/>
<path fill-rule="evenodd" clip-rule="evenodd" d="M0 1.488C0 0.665999 0.670499 0 1.4985 0H19.5L27 7.49999V28.4895C27.0013 28.6864 26.9639 28.8818 26.8898 29.0643C26.8157 29.2468 26.7064 29.4129 26.5681 29.5532C26.4297 29.6935 26.2652 29.8051 26.0837 29.8818C25.9022 29.9584 25.7074 29.9986 25.5105 30H1.4895C1.09557 29.9972 0.718525 29.8396 0.439826 29.5612C0.161127 29.2828 0.00314197 28.9059 0 28.512V1.488ZM18 3V8.99999H19.5H24V27H3V3H18Z" fill="white"/>
</svg>
